The Formula 1 crew heads over to Europe for the Monte Carlo Grand Prix. 

Here is the first practice session, Free Practice 1. 

Credit : IAMH67 capping and upload and Arena Vision + Rojadirecta for providing the feed. Uploaded in less than 30 minutes after airing, the first torrent on the Internet. 

Quality : 720p

Video: MPEG4 Video (H264) 1280x720 25fps [Video]

Audio: MP3 44100Hz stereo 96kbps [Audio]

Full Technical Information :

Video

ID                             : 69 (0x45)
Menu ID                        : 1 (0x1)
Format                         : AVC
Format/Info                    : Advanced Video Codec
Format profile                 : High@L5.1
Format settings, CABAC         : Yes
Format settings, ReFrames      : 7 frames
Codec ID                       : 27
Duration                       : 1h 32mn
Bit rate                       : 1 904 Kbps
Width                          : 1 280 pixels
Height                         : 720 pixels
Display aspect ratio           : 16:9
Frame rate                     : 25.000 fps
Color space                    : YUV
Chroma subsampling             : 4:2:0
Bit depth                      : 8 bits
Scan type                      : Progressive
Bits/(Pixel*Frame)             : 0.083
Stream size                    : 1.22 GiB (90%)

Audio

ID                             : 68 (0x44)
Menu ID                        : 1 (0x1)
Format                         : MPEG Audio
Format version                 : Version 1
Format profile                 : Layer 3
Mode                           : Joint stereo
Mode extension                 : MS Stereo
Codec ID                       : 3
Duration                       : 1h 32mn
Bit rate mode                  : Constant
Bit rate                       : 96.0 Kbps
Channel(s)                     : 2 channels
Sampling rate                  : 44.1 KHz
Compression mode               : Lossy
Delay relative to video        : -68ms
Stream size                    : 63.3 MiB (5%)


Screens : 
 
http://i.imgur.com/mwNOgmU.jpg
 
http://i.imgur.com/XL2rOvM.jpg
 
http://i.imgur.com/j6TNqwG.jpg


